<svg id="Graphic_Elements" data-name="Graphic Elements" xmlns="http://www.w3.org/2000/svg" viewBox="0 0 1200 1200"><metadata><?xpacket begin="﻿" id="W5M0MpCehiHzreSzNTczkc9d"?>
<x:xmpmeta xmlns:x="adobe:ns:meta/" x:xmptk="Adobe XMP Core 6.0-c002 79.164488, 2020/07/10-22:06:53        ">
   <rdf:RDF xmlns:rdf="http://www.w3.org/1999/02/22-rdf-syntax-ns#">
      <rdf:Description rdf:about=""
            xmlns:xmp="http://ns.adobe.com/xap/1.0/"
            xmlns:xmpMM="http://ns.adobe.com/xap/1.0/mm/"
            xmlns:stEvt="http://ns.adobe.com/xap/1.0/sType/ResourceEvent#">
         <xmp:Label>Approved</xmp:Label>
         <xmp:MetadataDate>2022-05-17T14:48:31+07:00</xmp:MetadataDate>
         <xmpMM:InstanceID>xmp.iid:b0ec7875-139d-4b0a-8b2d-8ee889a2ae13</xmpMM:InstanceID>
         <xmpMM:DocumentID>xmp.did:b0ec7875-139d-4b0a-8b2d-8ee889a2ae13</xmpMM:DocumentID>
         <xmpMM:OriginalDocumentID>xmp.did:b0ec7875-139d-4b0a-8b2d-8ee889a2ae13</xmpMM:OriginalDocumentID>
         <xmpMM:History>
            <rdf:Seq>
               <rdf:li>
                  <rdf:Description>
                     <stEvt:action>saved</stEvt:action>
                     <stEvt:instanceID>xmp.iid:b0ec7875-139d-4b0a-8b2d-8ee889a2ae13</stEvt:instanceID>
                     <stEvt:when>2022-05-17T14:48:31+07:00</stEvt:when>
                     <stEvt:softwareAgent>Adobe Bridge 2021 (Macintosh)</stEvt:softwareAgent>
                     <stEvt:changed>/metadata</stEvt:changed>
                  </rdf:Description>
               </rdf:li>
            </rdf:Seq>
         </xmpMM:History>
      </rdf:Description>
   </rdf:RDF>
</x:xmpmeta>
                                                                                                    
                                                                                                    
                                                                                                    
                                                                                                    
                                                                                                    
                                                                                                    
                                                                                                    
                                                                                                    
                                                                                                    
                                                                                                    
                                                                                                    
                                                                                                    
                                                                                                    
                                                                                                    
                                                                                                    
                                                                                                    
                                                                                                    
                                                                                                    
                                                                                                    
                                                                                                    
                           
<?xpacket end="w"?></metadata>
<defs><style>.cls-1{fill:#231f20;}</style></defs><g id="Graphic_Elements-2" data-name="Graphic Elements"><g id="g7379"><path id="path7348" class="cls-1" d="M640.59,1064.5c-12.08-10.07-13.42-16.11-17.45-67.12-4.7-63.09-8.73-73.16-30.21-82.56-31.54-12.75-67.79,13.43-102.69,75.18-27.52,47.65-80.54,65.1-119.47,38.93-17.46-11.41-21.48-18.13-40.95-61.08-15.44-34.23-26.17-38.26-65.78-23.5-59.06,21.48-93.29,16.78-122.83-16.1-30.2-33.56-33.56-64.44-14.09-123.51,10.07-28.86,13.42-49.66,13.42-79.2,0-50.34-12.08-79.87-45.64-112.76C81.48,600,66.71,581.23,62,570.49c-34.9-73.83,10.74-175.18,79.2-175.18,9.4,0,34.24,8.05,55,18.12,102,48.33,132.23,19.47,114.11-110.08-8.73-62.42,6.71-94,48.32-101.35,24.17-4.7,43.63,5.37,57.73,28.86C454,294,482.86,315.44,528.5,315.44c21.48,0,26.85-2,40.94-17.46,18.8-19.46,27.52-49.66,27.52-90.61,0-70.47,38.26-100,94.64-72.49,40.27,19.47,45.64,43,26.18,106.05-10.07,32.22-10.07,35.58-2.69,47,17.46,26.17,57.73,6,65.11-32.89,1.34-8.06,4-22.15,6-30.21,8.06-42.95,49.67-59.06,74.51-29.53,17.45,20.81,16.78,39.6-4,76.52-23.49,42.28-26.85,62.42-12.75,79.87,12.75,16.11,36.91,23.49,57,18.12,8.05-2,32.89-20.8,55-40.94,46.31-41.61,65.77-53.7,88.6-53.7,37.58,0,60.4,28.87,60.4,76.52,0,32.22-8.72,51.68-43.62,95.31-29.54,36.92-47,67.79-47,82.56s10.74,22.82,55.71,43.63c63.09,28.86,83.9,59.06,79.2,112.76-2.68,31.55-21.48,62.42-49.67,81.22-18.12,12.75-13.42,12.08-96.65,2.68-26.18-2.68-26.85-2.68-43,15.44C951.36,795.35,944,807.43,944,812.8c0,4.7,6.72,20.13,15.44,33.56,19.47,30.87,23.49,51.68,12.76,73.83-16.78,34.9-61.08,45.64-85.92,20.81-7.38-7.38-18.12-22.82-24.16-34.23-22.15-44.3-44.3-56.38-74.51-40.28-21.47,11.42-30.2,32.89-35.57,90-8,83.9-31.55,118.8-81.89,118.8-10.06.67-21.48-3.36-29.53-10.74Z"/></g></g></svg>